<svg width="100" height="133" viewBox="0 0 100 133" fill="none" xmlns="http://www.w3.org/2000/svg">
<path d="M47.6275 5.16008L47.5089 10.3795H45.1957C42.8232 10.3795 42.8232 10.3795 42.586 7.82912L42.3488 5.33801L42.2894 7.82912L42.1708 10.3795H39.8577C37.4852 10.3795 37.4852 10.3795 37.2479 7.82912L37.0107 5.33801L36.9514 7.82912L36.8327 10.3795H34.1637H31.4947V13.0486V15.7176H29.1815C26.809 15.7176 26.809 15.7176 26.5718 13.1672C26.4531 11.803 26.3345 12.9893 26.2752 15.8362L26.1566 21.0557L20.9964 21.1743C18.0902 21.2336 16.9039 21.3522 18.3274 21.4709C20.8185 21.7081 20.8185 21.7081 20.8185 24.0806V26.3938H18.1495H15.4804V29.0035V31.6725L12.9893 31.9098L10.4389 32.147L12.9893 32.2063L15.4804 32.325V34.6974V37.0699L10.3203 37.1885C7.414 37.2479 6.22776 37.3665 7.65125 37.4851C10.1423 37.7224 10.1423 37.7817 10.1423 40.0355C10.1423 42.2894 10.1423 42.3487 7.65125 42.5859L5.10083 42.8232L7.65125 42.8825C10.083 43.0011 10.1423 43.0604 10.1423 45.0177C10.1423 47.0343 10.083 47.0936 7.65125 47.2716C5.10083 47.4495 5.10083 47.4495 4.92289 49.9406C4.74496 52.4317 4.68565 52.491 2.72835 52.491C0.771056 52.491 0.711744 52.3724 0.474496 49.9406C0.237248 47.3309 0 65.6583 0 84.8161C0 105.457 0.237248 126.928 0.474496 124.377C0.711744 122.005 0.771056 121.886 2.72835 121.886C4.68565 121.886 4.74496 121.945 4.92289 124.377C5.10083 126.928 5.10083 126.928 7.59193 127.105C9.96441 127.283 10.083 127.402 10.3203 129.478L10.5575 131.673L10.6168 129.419C10.7355 127.283 10.7948 127.224 13.0486 127.224C15.4211 127.224 15.4211 127.224 15.6584 129.715L15.8956 132.266L15.9549 129.715L16.0735 127.224H18.3867C20.6999 127.224 20.7592 127.283 20.9964 129.419L21.2337 131.673L21.293 129.478C21.4116 127.343 21.4709 127.283 23.962 127.105C26.4531 126.928 26.4531 126.928 26.6311 124.377C26.809 121.886 26.809 121.886 29.1222 121.886C31.376 121.886 31.4354 121.886 31.6726 124.377L31.9098 126.928L31.9692 124.436C32.0878 121.945 32.0878 121.945 34.6382 121.767C37.1293 121.589 37.1293 121.589 37.3072 119.039C37.4852 116.548 37.4852 116.548 39.7983 116.548C42.0522 116.548 42.1115 116.548 42.3488 119.098L42.586 121.589L42.6453 119.098C42.7639 116.667 42.8232 116.607 45.0178 116.37L47.2123 116.133L45.0178 116.073C42.8232 115.955 42.7639 115.896 42.7639 113.582V111.269L47.6868 111.091L52.5504 110.913L52.7284 108.422C52.9063 105.931 52.9063 105.931 55.3974 105.753C57.8885 105.575 57.8885 105.575 58.0664 103.084C58.2444 100.652 58.3037 100.593 60.7355 100.356L63.2266 100.119L60.7355 100.059C58.2444 99.9406 58.1851 99.8813 58.1851 97.924C58.1851 95.9074 58.2444 95.8481 60.7355 95.6701C63.2266 95.4922 63.2266 95.4922 63.4045 93.0011C63.5824 90.51 63.5824 90.51 66.0735 90.3321C68.5647 90.1541 68.5647 90.1541 68.7426 87.663C68.9205 85.2312 68.9798 85.1719 71.4116 84.9347L73.9027 84.6974L71.4116 84.6381L68.8612 84.5195V82.147C68.8612 79.7745 68.8612 79.7745 71.1744 79.7745C73.4875 79.7745 73.5469 79.8338 73.7841 81.9691L74.0214 84.2229L74.0807 82.0284C74.1993 79.9525 74.3179 79.8338 76.4531 79.5966L78.6477 79.3593L76.4531 79.3C74.2586 79.1814 74.1993 79.1221 74.1993 76.8682C74.1993 74.4958 74.1993 74.4958 76.7497 74.3178C79.2408 74.1399 79.2408 74.1399 79.4187 71.6488C79.5967 69.2763 79.7153 69.1577 81.7912 68.9204L83.9858 68.6832L81.7912 68.6239C79.5967 68.5053 79.5374 68.4459 79.5374 66.1328C79.5374 63.7603 79.5374 63.7603 81.8505 63.7603C84.223 63.7603 84.223 63.7603 84.4603 66.2514L84.6975 68.8018L84.7568 66.3107C84.8755 63.8789 84.9348 63.8196 87.1293 63.5824L89.3238 63.3451L87.1293 63.2858C84.9348 63.1672 84.8755 63.1079 84.8755 60.854C84.8755 58.4815 84.8755 58.4815 87.4259 58.3036C89.917 58.1257 89.917 58.1257 90.0949 55.6346C90.2728 53.2621 90.3915 53.1435 92.4674 52.9062L94.6619 52.669L92.4674 52.6096C90.2728 52.491 90.2135 52.4317 90.2135 50.1779C90.2135 47.8054 90.2135 47.8054 92.7639 47.5681L95.255 47.3309L92.7639 47.2716C90.2728 47.153 90.2135 47.0936 90.2135 45.1363C90.2135 43.1197 90.2728 43.0604 92.7639 42.8232L95.255 42.5859L92.7639 42.5266L90.2135 42.408V40.0355C90.2135 37.663 90.2135 37.663 92.5267 37.663C94.8399 37.663 94.8992 37.7224 95.1364 39.8576L95.3737 42.1114L95.433 39.9169C95.5516 37.841 95.6702 37.7224 97.8055 37.4851L100 37.2479L97.8055 37.1885C95.6109 37.0699 95.5516 37.0106 95.5516 34.6974C95.5516 32.3843 95.6109 32.325 97.7461 32.325C98.9324 32.325 99.7628 32.147 99.5848 31.9691C99.3476 31.7912 97.2123 31.6725 94.7212 31.6725H90.2135V29.3594C90.2135 27.1055 90.2135 27.0462 92.7639 26.8089L95.255 26.5717L92.7639 26.5124L90.2135 26.3938V24.0806C90.2135 21.7081 90.2135 21.7081 92.7639 21.4709L95.255 21.2336L92.7639 21.1743L90.2135 21.0557V18.7425C90.2135 16.4294 90.2728 16.37 92.4674 16.1328L94.6619 15.8955L92.4674 15.8362C90.3321 15.7176 90.2728 15.6583 90.0356 13.1672L89.7983 10.6761L89.739 13.1672L89.6204 15.7176H87.2479C84.8755 15.7176 84.8755 15.7176 84.8755 13.4044C84.8755 11.0913 84.9348 11.032 87.1293 10.7947C88.3155 10.6761 87.1293 10.5575 84.4603 10.4982L79.5967 10.3795L79.4187 7.82912L79.2408 5.33801L74.0807 5.16008L68.9205 4.98214L68.6833 2.49104L68.446 -6.10352e-05L68.3867 2.49104L68.2681 5.04146H65.9549C63.5824 5.04146 63.5824 5.04146 63.3452 2.49104L63.1079 -6.10352e-05L63.0486 2.49104L62.93 5.04146H60.6168C58.2444 5.04146 58.2444 5.04146 58.0071 2.49104L57.7699 -6.10352e-05L57.7106 2.49104L57.5919 5.04146H55.2788C52.9063 5.04146 52.9063 5.04146 52.669 2.49104L52.4318 -6.10352e-05L52.3725 2.49104C52.2539 4.98214 52.1945 5.04146 50.2372 5.04146C48.2206 5.04146 48.1613 4.98214 47.9241 2.49104C47.8055 1.12686 47.6868 2.31311 47.6275 5.16008ZM52.2539 8.00706C52.2539 10.3202 52.1945 10.3795 50.1779 10.3795C48.1613 10.3795 48.102 10.3202 48.102 8.00706C48.102 5.69389 48.1613 5.63457 50.1779 5.63457C52.1945 5.63457 52.2539 5.69389 52.2539 8.00706ZM57.5919 8.00706V10.3795H55.2195H52.847V8.00706V5.63457H55.2195H57.5919V8.00706ZM62.93 8.00706V10.3795H60.5575H58.1851V8.00706V5.63457H60.5575H62.93V8.00706ZM68.2681 8.00706V10.3795H65.8956H63.5231V8.00706V5.63457H65.8956H68.2681V8.00706ZM73.6062 8.00706V10.3795H71.2337H68.8612V8.00706V5.63457H71.2337H73.6062V8.00706ZM78.9443 8.00706V10.3795H76.5718H74.1993V8.00706V5.63457H76.5718H78.9443V8.00706ZM36.8327 13.3451V15.7176H34.4603H32.0878V13.3451V10.9726H34.4603H36.8327V13.3451ZM42.2894 13.4638L42.3488 16.0142L42.586 13.4638C42.8232 10.9726 42.8232 10.9726 45.1957 10.9726H47.5089L47.6275 13.4638L47.6868 16.0142L47.9241 13.4638C48.1613 11.032 48.2206 10.9726 50.2372 10.9726C52.1945 10.9726 52.2539 11.032 52.3725 13.4638L52.4318 16.0142L52.669 13.4638C52.9063 10.9726 52.9063 10.9726 55.2788 10.9726H57.5919L57.7106 13.4638L57.7699 16.0142L58.0071 13.4638C58.2444 10.9726 58.2444 10.9726 60.6168 10.9726H62.93L63.0486 13.4638L63.1079 16.0142L63.3452 13.4638C63.5824 10.9726 63.6418 10.9726 65.8956 10.9726C68.2088 10.9726 68.2088 10.9726 68.3867 13.4638C68.5647 16.0142 68.5647 16.0142 71.1151 16.1921L73.6062 16.37L73.7248 21.5302C73.7841 24.3772 73.9027 25.5634 74.0214 24.1399C74.2586 21.6488 74.2586 21.6488 76.6311 21.6488H78.9443V34.4009L78.8849 47.153H76.2159H73.6062V52.4317V57.7698L71.1151 57.9477L68.5647 58.1257L68.3867 63.2858L68.2088 68.5053H65.5991H62.93V71.1743V73.8433L60.4389 73.962L57.8885 74.0213L60.4389 74.2585C62.93 74.4958 62.93 74.4958 62.93 76.8682V79.1814L57.7699 79.3C54.8636 79.3593 53.6773 79.478 55.1008 79.5966C57.5919 79.8338 57.5919 79.8338 57.5919 82.2063V84.5195H52.5504H47.5089L47.4496 87.3072C47.4496 88.9086 47.4496 91.3404 47.5089 92.7639L47.6275 95.3143L44.8992 95.1363L42.1708 94.8991L42.1115 97.5681C42.1115 99.0509 42.1115 101.364 42.1708 102.728L42.2894 105.279H39.8577H37.4259L37.3072 102.728L37.2479 100.237L37.0107 102.728L36.7734 105.279H34.1044H31.4947V107.948V110.617H23.7841H16.0735V108.244V105.872L18.624 105.753L21.1151 105.694L18.624 105.457C16.0735 105.219 16.0735 105.219 16.0735 102.847V100.534L18.624 100.415L21.1151 100.356L18.624 100.119C16.1329 99.8813 16.0735 99.822 16.0735 97.8054C16.0735 95.8481 16.1329 95.7888 18.624 95.6701L21.1151 95.6108L18.624 95.3736C16.0735 95.1363 16.0735 95.1363 16.0735 92.7639V90.4507L18.624 90.3321L21.1151 90.2728L18.624 90.0355C16.0735 89.7983 16.0735 89.7983 16.0735 87.4258V85.1126L18.624 84.994L21.1151 84.9347L18.624 84.6974C16.0735 84.4602 16.0735 84.4602 16.0735 82.0877V79.7745L18.624 79.6559L21.1151 79.5966L18.624 79.3593C16.0735 79.1221 16.0735 79.1221 16.0735 76.7496V74.4365L18.624 74.3178L21.1151 74.2585L18.624 74.0213C16.0735 73.784 16.0735 73.784 16.0735 71.4115V69.0984L18.624 68.9798L21.1151 68.9204L18.624 68.6832C16.0735 68.4459 16.0735 68.3866 16.0735 66.1328C16.0735 63.8196 16.0735 63.8196 18.624 63.6417C21.1151 63.4637 21.1151 63.4637 21.293 60.9133C21.4709 58.4222 21.4709 58.4222 23.962 58.3036L26.4531 58.2443L23.962 58.007C21.4116 57.7698 21.4116 57.7698 21.4116 55.3973V53.0842L23.962 52.9655L26.4531 52.9062L23.962 52.669C21.4116 52.4317 21.4116 52.4317 21.4116 50.0592V47.7461L23.962 47.6274L26.4531 47.5681L23.962 47.3309C21.5302 47.0936 21.4116 47.0343 21.4116 45.077C21.4116 43.1197 21.4709 43.0604 23.962 42.8825C26.4531 42.7046 26.4531 42.7046 26.6311 40.1541C26.809 37.7224 26.8683 37.663 29.0036 37.5444L31.1981 37.4851L29.0036 37.2479C26.809 37.0106 26.7497 36.9513 26.7497 34.6381V32.325L29.3001 32.2063L31.7912 32.147L29.3001 31.9098C26.7497 31.6725 26.7497 31.6725 26.7497 29.3C26.7497 26.9869 26.7497 26.9869 29.1222 26.9869C31.4354 26.9869 31.4947 27.0462 31.6133 29.1814L31.6726 31.4353L31.9098 29.1814C32.1471 27.1055 32.2657 26.9869 34.3416 26.8683L36.5362 26.8089L34.3416 26.5717C32.1471 26.3344 32.0878 26.2751 32.0878 23.962C32.0878 21.7081 32.1471 21.6488 34.3416 21.5302L36.5362 21.4709L34.3416 21.2336C32.1471 20.9964 32.0878 20.9371 32.0878 18.6239C32.0878 16.3107 32.0878 16.3107 34.4603 16.3107H36.8327L36.9514 18.8018L37.0107 21.3522L37.2479 18.8018C37.4852 16.37 37.5445 16.3107 39.6797 16.1921L41.8743 16.1328L39.6797 15.8955C37.4852 15.6583 37.4259 15.599 37.4259 13.2858C37.4259 10.9726 37.4259 10.9726 39.7983 10.9726H42.1708L42.2894 13.4638ZM73.6062 13.3451V15.7176H71.2337H68.8612V13.3451V10.9726H71.2337H73.6062V13.3451ZM78.9443 13.3451V15.7176H76.5718H74.1993V13.3451V10.9726H76.5718H78.9443V13.3451ZM84.2823 13.3451V15.7176H81.9099H79.5374V13.3451V10.9726H81.9099H84.2823V13.3451ZM31.4947 18.6832V21.0557H29.1222H26.7497V18.6832V16.3107H29.1222H31.4947V18.6832ZM78.9443 18.6832V21.0557H76.5718H74.1993V18.6832V16.3107H76.5718H78.9443V18.6832ZM84.2823 18.6832V21.0557H81.9099H79.5374V18.6832V16.3107H81.9099H84.2823V18.6832ZM89.6204 18.6832V21.0557H87.2479H84.8755V18.6832V16.3107H87.2479H89.6204V18.6832ZM26.1566 24.0213V26.3938H23.7841H21.4116V24.0213V21.6488H23.7841H26.1566V24.0213ZM31.4947 24.0213V26.3938H29.1222H26.7497V24.0213V21.6488H29.1222H31.4947V24.0213ZM84.2823 24.0213V26.3938H81.9099H79.5374V24.0213V21.6488H81.9099H84.2823V24.0213ZM89.6204 24.0213V26.3938H87.2479H84.8755V24.0213V21.6488H87.2479H89.6204V24.0213ZM20.8185 29.3594V31.7318H18.446H16.0735V29.3594V26.9869H18.446H20.8185V29.3594ZM26.1566 29.3594V31.7318H23.7841H21.4116V29.3594V26.9869H23.7841H26.1566V29.3594ZM84.2823 29.3594V31.7318H81.9099H79.5374V29.3594V26.9869H81.9099H84.2823V29.3594ZM89.6204 29.3594V31.7318H87.2479H84.8755V29.3594V26.9869H87.2479H89.6204V29.3594ZM20.8185 34.6974V37.0699H18.446H16.0735V34.6974V32.325H18.446H20.8185V34.6974ZM26.1566 34.6974V37.0699H23.7841H21.4116V34.6974V32.325H23.7841H26.1566V34.6974ZM84.2823 34.6974V37.0699H81.9099H79.5374V34.6974V32.325H81.9099H84.2823V34.6974ZM89.6204 34.6974V37.0699H87.2479H84.8755V34.6974V32.325H87.2479H89.6204V34.6974ZM94.9585 34.6974V37.0699H92.586H90.2135V34.6974V32.325H92.586H94.9585V34.6974ZM15.4804 40.0355V42.408H13.1079H10.7355V40.0355V37.663H13.1079H15.4804V40.0355ZM20.8185 40.0355V42.408H18.446H16.0735V40.0355V37.663H18.446H20.8185V40.0355ZM26.1566 40.0355V42.408H23.7841H21.4116V40.0355V37.663H23.7841H26.1566V40.0355ZM84.2823 40.0355V42.408H81.9099H79.5374V40.0355V37.663H81.9099H84.2823V40.0355ZM89.6204 40.0355V42.408H87.2479H84.8755V40.0355V37.663H87.2479H89.6204V40.0355ZM15.4804 45.077C15.4804 47.0936 15.4211 47.153 13.1079 47.153C10.7948 47.153 10.7355 47.0936 10.7355 45.077C10.7355 43.0604 10.7948 43.0011 13.1079 43.0011C15.4211 43.0011 15.4804 43.0604 15.4804 45.077ZM20.8185 45.077C20.8185 47.0936 20.7592 47.153 18.446 47.153C16.1329 47.153 16.0735 47.0936 16.0735 45.077C16.0735 43.0604 16.1329 43.0011 18.446 43.0011C20.7592 43.0011 20.8185 43.0604 20.8185 45.077ZM84.2823 45.077C84.2823 47.0936 84.223 47.153 81.9099 47.153C79.5967 47.153 79.5374 47.0936 79.5374 45.077C79.5374 43.0604 79.5967 43.0011 81.9099 43.0011C84.223 43.0011 84.2823 43.0604 84.2823 45.077ZM89.6204 45.077C89.6204 47.0936 89.5611 47.153 87.2479 47.153C84.9348 47.153 84.8755 47.0936 84.8755 45.077C84.8755 43.0604 84.9348 43.0011 87.2479 43.0011C89.5611 43.0011 89.6204 43.0604 89.6204 45.077ZM10.1423 50.1186V52.491H7.76987H5.39739V50.1186V47.7461H7.76987H10.1423V50.1186ZM15.4804 50.1186V52.491H13.1079H10.7355V50.1186V47.7461H13.1079H15.4804V50.1186ZM20.8185 50.1186V52.491H18.446H16.0735V50.1186V47.7461H18.446H20.8185V50.1186ZM78.9443 50.1186V52.491H76.5718H74.1993V50.1186V47.7461H76.5718H78.9443V50.1186ZM84.2823 50.1186V52.491H81.9099H79.5374V50.1186V47.7461H81.9099H84.2823V50.1186ZM89.6204 50.1186V52.491H87.2479H84.8755V50.1186V47.7461H87.2479H89.6204V50.1186ZM4.80427 55.4566C4.80427 57.7698 4.74496 57.8291 2.72835 57.8291C0.711744 57.8291 0.652432 57.7698 0.652432 55.4566C0.652432 53.1435 0.711744 53.0842 2.72835 53.0842C4.74496 53.0842 4.80427 53.1435 4.80427 55.4566ZM10.1423 55.4566V57.8291H7.76987H5.39739V55.4566V53.0842H7.76987H10.1423V55.4566ZM15.4804 55.4566V57.8291H13.1079H10.7355V55.4566V53.0842H13.1079H15.4804V55.4566ZM20.8185 55.4566V57.8291H18.446H16.0735V55.4566V53.0842H18.446H20.8185V55.4566ZM78.9443 55.4566V57.8291H76.5718H74.1993V55.4566V53.0842H76.5718H78.9443V55.4566ZM84.2823 55.4566V57.8291H81.9099H79.5374V55.4566V53.0842H81.9099H84.2823V55.4566ZM89.6204 55.4566V57.8291H87.2479H84.8755V55.4566V53.0842H87.2479H89.6204V55.4566ZM4.80427 60.7947C4.80427 63.1079 4.74496 63.1672 2.72835 63.1672C0.711744 63.1672 0.652432 63.1079 0.652432 60.7947C0.652432 58.4815 0.711744 58.4222 2.72835 58.4222C4.74496 58.4222 4.80427 58.4815 4.80427 60.7947ZM10.1423 60.7947V63.1672H7.76987H5.39739V60.7947V58.4222H7.76987H10.1423V60.7947ZM15.4804 60.7947V63.1672H13.1079H10.7355V60.7947V58.4222H13.1079H15.4804V60.7947ZM20.8185 60.7947V63.1672H18.446H16.0735V60.7947V58.4222H18.446H20.8185V60.7947ZM73.6062 60.7947V63.1672H71.2337H68.8612V60.7947V58.4222H71.2337H73.6062V60.7947ZM78.9443 60.7947V63.1672H76.5718H74.1993V60.7947V58.4222H76.5718H78.9443V60.7947ZM84.2823 60.7947V63.1672H81.9099H79.5374V60.7947V58.4222H81.9099H84.2823V60.7947ZM4.80427 66.1328C4.80427 68.4459 4.74496 68.5053 2.72835 68.5053C0.711744 68.5053 0.652432 68.4459 0.652432 66.1328C0.652432 63.8196 0.711744 63.7603 2.72835 63.7603C4.74496 63.7603 4.80427 63.8196 4.80427 66.1328ZM10.1423 66.1328V68.5053H7.76987H5.39739V66.1328V63.7603H7.76987H10.1423V66.1328ZM15.4804 66.1328V68.5053H13.1079H10.7355V66.1328V63.7603H13.1079H15.4804V66.1328ZM73.6062 66.1328V68.5053H71.2337H68.8612V66.1328V63.7603H71.2337H73.6062V66.1328ZM78.9443 66.1328V68.5053H76.5718H74.1993V66.1328V63.7603H76.5718H78.9443V66.1328ZM4.80427 71.4709C4.80427 73.784 4.74496 73.8433 2.72835 73.8433C0.711744 73.8433 0.652432 73.784 0.652432 71.4709C0.652432 69.1577 0.711744 69.0984 2.72835 69.0984C4.74496 69.0984 4.80427 69.1577 4.80427 71.4709ZM10.1423 71.4709V73.8433H7.76987H5.39739V71.4709V69.0984H7.76987H10.1423V71.4709ZM15.4804 71.4709V73.8433H13.1079H10.7355V71.4709V69.0984H13.1079H15.4804V71.4709ZM68.2681 71.4709V73.8433H65.8956H63.5231V71.4709V69.0984H65.8956H68.2681V71.4709ZM73.6062 71.4709V73.8433H71.2337H68.8612V71.4709V69.0984H71.2337H73.6062V71.4709ZM78.9443 71.4709V73.8433H76.5718H74.1993V71.4709V69.0984H76.5718H78.9443V71.4709ZM4.80427 76.8089C4.80427 79.1221 4.74496 79.1814 2.72835 79.1814C0.711744 79.1814 0.652432 79.1221 0.652432 76.8089C0.652432 74.4958 0.711744 74.4365 2.72835 74.4365C4.74496 74.4365 4.80427 74.4958 4.80427 76.8089ZM10.1423 76.8089V79.1814H7.76987H5.39739V76.8089V74.4365H7.76987H10.1423V76.8089ZM15.4804 76.8089V79.1814H13.1079H10.7355V76.8089V74.4365H13.1079H15.4804V76.8089ZM68.2681 76.8089V79.1814H65.8956H63.5231V76.8089V74.4365H65.8956H68.2681V76.8089ZM73.6062 76.8089V79.1814H71.2337H68.8612V76.8089V74.4365H71.2337H73.6062V76.8089ZM4.80427 82.147C4.80427 84.4602 4.74496 84.5195 2.72835 84.5195C0.711744 84.5195 0.652432 84.4602 0.652432 82.147C0.652432 79.8338 0.711744 79.7745 2.72835 79.7745C4.74496 79.7745 4.80427 79.8338 4.80427 82.147ZM10.1423 82.147V84.5195H7.76987H5.39739V82.147V79.7745H7.76987H10.1423V82.147ZM15.4804 82.147V84.5195H13.1079H10.7355V82.147V79.7745H13.1079H15.4804V82.147ZM62.93 82.147V84.5195H60.5575H58.1851V82.147V79.7745H60.5575H62.93V82.147ZM68.2681 82.147V84.5195H65.8956H63.5231V82.147V79.7745H65.8956H68.2681V82.147ZM4.80427 87.4851C4.80427 89.7983 4.74496 89.8576 2.72835 89.8576C0.711744 89.8576 0.652432 89.7983 0.652432 87.4851C0.652432 85.1719 0.711744 85.1126 2.72835 85.1126C4.74496 85.1126 4.80427 85.1719 4.80427 87.4851ZM10.1423 87.4851V89.8576H7.76987H5.39739V87.4851V85.1126H7.76987H10.1423V87.4851ZM15.4804 87.4851V89.8576H13.1079H10.7355V87.4851V85.1126H13.1079H15.4804V87.4851ZM52.2539 87.4851C52.2539 89.7983 52.1945 89.8576 50.1779 89.8576C48.1613 89.8576 48.102 89.7983 48.102 87.4851C48.102 85.1719 48.1613 85.1126 50.1779 85.1126C52.1945 85.1126 52.2539 85.1719 52.2539 87.4851ZM57.5919 87.4851V89.8576H55.2195H52.847V87.4851V85.1126H55.2195H57.5919V87.4851ZM62.93 87.4851V89.8576H60.5575H58.1851V87.4851V85.1126H60.5575H62.93V87.4851ZM68.2681 87.4851V89.8576H65.8956H63.5231V87.4851V85.1126H65.8956H68.2681V87.4851ZM4.80427 92.8232C4.80427 95.1363 4.74496 95.1956 2.72835 95.1956C0.711744 95.1956 0.652432 95.1363 0.652432 92.8232C0.652432 90.51 0.711744 90.4507 2.72835 90.4507C4.74496 90.4507 4.80427 90.51 4.80427 92.8232ZM10.1423 92.8232V95.1956H7.76987H5.39739V92.8232V90.4507H7.76987H10.1423V92.8232ZM15.4804 92.8232V95.1956H13.1079H10.7355V92.8232V90.4507H13.1079H15.4804V92.8232ZM52.2539 92.8232C52.2539 95.1363 52.1945 95.1956 50.1779 95.1956C48.1613 95.1956 48.102 95.1363 48.102 92.8232C48.102 90.51 48.1613 90.4507 50.1779 90.4507C52.1945 90.4507 52.2539 90.51 52.2539 92.8232ZM57.5919 92.8232V95.1956H55.2195H52.847V92.8232V90.4507H55.2195H57.5919V92.8232ZM62.93 92.8232V95.1956H60.5575H58.1851V92.8232V90.4507H60.5575H62.93V92.8232ZM4.80427 97.8647C4.80427 99.822 4.68565 99.9406 2.72835 99.9406C0.771056 99.9406 0.652432 99.822 0.652432 97.8647C0.652432 95.9074 0.771056 95.7888 2.72835 95.7888C4.68565 95.7888 4.80427 95.9074 4.80427 97.8647ZM10.1423 97.8647C10.1423 99.8813 10.083 99.9406 7.76987 99.9406C5.4567 99.9406 5.39739 99.8813 5.39739 97.8647C5.39739 95.8481 5.4567 95.7888 7.76987 95.7888C10.083 95.7888 10.1423 95.8481 10.1423 97.8647ZM15.4804 97.8647C15.4804 99.8813 15.4211 99.9406 13.1079 99.9406C10.7948 99.9406 10.7355 99.8813 10.7355 97.8647C10.7355 95.8481 10.7948 95.7888 13.1079 95.7888C15.4211 95.7888 15.4804 95.8481 15.4804 97.8647ZM47.5089 97.8647C47.5089 99.8813 47.4496 99.9406 45.1364 99.9406C42.8232 99.9406 42.7639 99.8813 42.7639 97.8647C42.7639 95.8481 42.8232 95.7888 45.1364 95.7888C47.4496 95.7888 47.5089 95.8481 47.5089 97.8647ZM52.2539 97.8647C52.2539 99.822 52.1352 99.9406 50.1779 99.9406C48.2206 99.9406 48.102 99.822 48.102 97.8647C48.102 95.9074 48.2206 95.7888 50.1779 95.7888C52.1352 95.7888 52.2539 95.9074 52.2539 97.8647ZM57.5919 97.8647C57.5919 99.8813 57.5326 99.9406 55.2195 99.9406C52.9063 99.9406 52.847 99.8813 52.847 97.8647C52.847 95.8481 52.9063 95.7888 55.2195 95.7888C57.5326 95.7888 57.5919 95.8481 57.5919 97.8647ZM4.80427 102.906C4.80427 105.219 4.74496 105.279 2.72835 105.279C0.711744 105.279 0.652432 105.219 0.652432 102.906C0.652432 100.593 0.711744 100.534 2.72835 100.534C4.74496 100.534 4.80427 100.593 4.80427 102.906ZM10.1423 102.906V105.279H7.76987H5.39739V102.906V100.534H7.76987H10.1423V102.906ZM15.4804 102.906V105.279H13.1079H10.7355V102.906V100.534H13.1079H15.4804V102.906ZM47.5089 102.906V105.279H45.1364H42.7639V102.906V100.534H45.1364H47.5089V102.906ZM52.2539 102.906C52.2539 105.219 52.1945 105.279 50.1779 105.279C48.1613 105.279 48.102 105.219 48.102 102.906C48.102 100.593 48.1613 100.534 50.1779 100.534C52.1945 100.534 52.2539 100.593 52.2539 102.906ZM57.5919 102.906V105.279H55.2195H52.847V102.906V100.534H55.2195H57.5919V102.906ZM4.80427 108.244C4.80427 110.557 4.74496 110.617 2.72835 110.617C0.711744 110.617 0.652432 110.557 0.652432 108.244C0.652432 105.931 0.711744 105.872 2.72835 105.872C4.74496 105.872 4.80427 105.931 4.80427 108.244ZM10.1423 108.244V110.617H7.76987H5.39739V108.244V105.872H7.76987H10.1423V108.244ZM15.4804 108.244V110.617H13.1079H10.7355V108.244V105.872H13.1079H15.4804V108.244ZM36.8327 108.244V110.617H34.4603H32.0878V108.244V105.872H34.4603H36.8327V108.244ZM42.1708 108.244V110.617H39.7983H37.4259V108.244V105.872H39.7983H42.1708V108.244ZM47.5089 108.244V110.617H45.1364H42.7639V108.244V105.872H45.1364H47.5089V108.244ZM52.2539 108.244C52.2539 110.557 52.1945 110.617 50.1779 110.617C48.1613 110.617 48.102 110.557 48.102 108.244C48.102 105.931 48.1613 105.872 50.1779 105.872C52.1945 105.872 52.2539 105.931 52.2539 108.244ZM4.80427 113.582C4.80427 115.896 4.74496 115.955 2.72835 115.955C0.711744 115.955 0.652432 115.896 0.652432 113.582C0.652432 111.269 0.711744 111.21 2.72835 111.21C4.74496 111.21 4.80427 111.269 4.80427 113.582ZM10.1423 113.582V115.955H7.76987H5.39739V113.582V111.21H7.76987H10.1423V113.582ZM15.4804 113.582V115.955H13.1079H10.7355V113.582V111.21H13.1079H15.4804V113.582ZM20.8185 113.582V115.955H18.446H16.0735V113.582V111.21H18.446H20.8185V113.582ZM26.1566 113.582V115.955H23.7841H21.4116V113.582V111.21H23.7841H26.1566V113.582ZM31.4947 113.582V115.955H29.1222H26.7497V113.582V111.21H29.1222H31.4947V113.582ZM36.8327 113.582V115.955H34.4603H32.0878V113.582V111.21H34.4603H36.8327V113.582ZM42.1708 113.582V115.955H39.7983H37.4259V113.582V111.21H39.7983H42.1708V113.582ZM4.80427 118.92C4.80427 121.234 4.74496 121.293 2.72835 121.293C0.711744 121.293 0.652432 121.234 0.652432 118.92C0.652432 116.607 0.711744 116.548 2.72835 116.548C4.74496 116.548 4.80427 116.607 4.80427 118.92ZM10.1423 118.92V121.293H7.76987H5.39739V118.92V116.548H7.76987H10.1423V118.92ZM15.4804 118.92V121.293H13.1079H10.7355V118.92V116.548H13.1079H15.4804V118.92ZM20.8185 118.92V121.293H18.446H16.0735V118.92V116.548H18.446H20.8185V118.92ZM26.1566 118.92V121.293H23.7841H21.4116V118.92V116.548H23.7841H26.1566V118.92ZM31.4947 118.92V121.293H29.1222H26.7497V118.92V116.548H29.1222H31.4947V118.92ZM36.8327 118.92V121.293H34.4603H32.0878V118.92V116.548H34.4603H36.8327V118.92ZM10.1423 124.259V126.631H7.76987H5.39739V124.259V121.886H7.76987H10.1423V124.259ZM15.4804 124.259V126.631H13.1079H10.7355V124.259V121.886H13.1079H15.4804V124.259ZM20.8185 124.259V126.631H18.446H16.0735V124.259V121.886H18.446H20.8185V124.259ZM26.1566 124.259V126.631H23.7841H21.4116V124.259V121.886H23.7841H26.1566V124.259Z" fill="#E8621F"/>
</svg>
